<?xml version="1.0" encoding="UTF-8" standalone="no"?>
<svg
   xmlns:dc="http://purl.org/dc/elements/1.1/"
   xmlns:cc="http://creativecommons.org/ns#"
   xmlns:rdf="http://www.w3.org/1999/02/22-rdf-syntax-ns#"
   xmlns:svg="http://www.w3.org/2000/svg"
   xmlns="http://www.w3.org/2000/svg"
   viewBox="0 0 7821.5869 4398.9731"
   height="4398.9731"
   width="7821.5869"
   xml:space="preserve"
   id="svg2"
   version="1.1"><metadata
     id="metadata8"><rdf:RDF><cc:Work
         rdf:about=""><dc:format>image/svg+xml</dc:format><dc:type
           rdf:resource="http://purl.org/dc/dcmitype/StillImage" /></cc:Work></rdf:RDF></metadata><defs
     id="defs6" /><g
     transform="matrix(1.3333333,0,0,-1.3333333,0,4398.9733)"
     id="g10"><g
       transform="scale(0.1)"
       id="g12"><g
         transform="scale(3.59889)"
         id="g14"><path
           id="path16"
           style="fill:#e6f4ff;fill-opacity:1;fill-rule:nonzero;stroke:none"
           d="M 16300,9167.35 V 0 H -0.0010854 V 9167.35 H 16300" /></g><g
         transform="scale(3.21402)"
         id="g18"><path
           id="path20"
           style="fill:#d9efff;fill-opacity:1;fill-rule:nonzero;stroke:none"
           d="M 16300,0 H -0.00121538 V 7041.65 C 722.416,7291.4 1252.27,7246.28 1632.18,7128.71 3345.5,6598.06 3275.18,4199.42 5283.11,3556.7 c 910.6,-291.47 1302.29,81.18 2271.58,-429.74 688.42,-362.82 709.26,-665.99 1770.93,-1435.65 702.88,-509.58 1188.68,-861.757 1877.88,-1015.956 867.2,-193.9 1378.2,77.38 2072.2,157.964 C 13982.6,915.365 14984.9,811.602 16300,0" /></g><g
         transform="scale(3.59889)"
         id="g22"><path
           id="path24"
           style="fill:#d9efff;fill-opacity:1;fill-rule:nonzero;stroke:none"
           d="M 16300,9167.35 V 4212.74 c -320.1,30.71 -665.4,3.45 -998.5,-141.96 -413.9,-180.58 -576.9,-434.8 -806.3,-660.95 -965.9,-951.82 -3013,-885.55 -4428.2,-171.78 -397.63,200.54 -1600.36,807.2 -2008.85,2013.9 -322.96,954.24 14.59,1799.25 -626.16,2363.12 -324.1,285.18 -584.35,222.1 -877.36,565 -244.79,286.39 -333.24,646.37 -350.41,987.28 H 16300" /></g><g
         transform="scale(2.25845)"
         id="g26"><path
           id="path28"
           style="fill:#bde0fe;fill-opacity:1;fill-rule:nonzero;stroke:none"
           d="M 12857.2,59.113 C 12830.6,44.2781 12811,23.246 12796.5,0 h 45.6 c 9,10.5818 20,19.792 33.1,27.0978 37.3,20.7675 80.4,19.2178 118.6,9.077 32.8,-8.6774 61.9,-23.687 80.2,-36.1748 h 56.4 c -9.9,10.4486 -20.9,20.0583 -33,28.6043 -48.7,33.961 -153.9,78.6387 -240.2,30.5087 z m 3384.4,3908.517 c -25.1,-42.73 -110.3,-43.31 -159,-38.35 21.5,67.79 61.4,113.44 104.7,118.14 1.1,0.13 17.3,1.77 33.4,-2.48 9.9,-2.62 19.6,-7.58 25.5,-16.39 12.1,-18.02 3.9,-46.36 -4.6,-60.92 z M 16014,3702.4 c 1.8,-1.77 46.5,-46.18 34,-87.98 -10.3,-34.94 -54.2,-50.74 -75.9,-54.2 -75.4,-12.08 -158.1,90.64 -195,148.25 98.3,41.66 189.8,39.71 236.9,-6.07 z m -375.5,260.18 c 0.7,2.57 18.3,62.83 61.2,71.6 9.2,1.94 18.4,1.24 27.1,-1.11 25.1,-6.6 46.7,-27.05 56.7,-39.98 46.4,-60.67 -4.9,-182.34 -38.2,-241.98 -83.2,66.64 -124.8,148.2 -106.8,211.47 z m -73.6,-637.61 c 2.3,-2.21 53.5,-53.22 39.1,-101.35 -12.1,-40.42 -62.4,-58.71 -87.3,-62.7 -95.3,-15.36 -191.7,121.15 -223.2,170.25 112.3,48.27 217.6,46.19 271.4,-6.2 z m -303.1,49.64 c -95.9,76.03 -143.9,169.54 -123.1,241.98 0.8,2.92 21.2,72.09 70.7,82.4 10.7,2.17 21.3,1.37 31.3,-1.37 28.9,-7.57 53.8,-31.08 65.2,-45.96 58.5,-76.29 -15.8,-226.17 -44.1,-277.05 z m -70.4,-528.28 c 7.1,-6.29 69.4,-64.07 54.4,-124.69 -12.9,-51.72 -74.7,-77.57 -105.6,-84.04 -119.5,-25.02 -249.1,144.66 -287.5,199.52 136.7,67.65 268.1,71.77 338.7,9.21 z m -372.5,34.09 c -124.5,88.42 -190.3,202.26 -168.7,294.01 0.8,3.67 22,91.17 83.9,106.97 15.3,3.86 30.5,2.88 44.9,-0.84 34.6,-9.21 64.9,-35.33 79.2,-52.24 78.8,-93.39 -9.4,-288.08 -39.3,-347.9 z m -4.3,-605.37 c 3.7,-1.81 91.8,-46.36 93.4,-116.63 1.2,-58.58 -56.7,-103.78 -87.5,-119.59 -117.8,-60.22 -299.9,77.53 -358,125.66 1.2,3.01 2.3,5.93 3.5,8.94 123.1,106.58 257.7,146.7 348.6,101.62 z m -399.8,-73.99 c -157.2,57.21 -259.9,158.83 -263.5,262.09 0,3.27 -1.5,62.56 25.6,105.47 0,0.13 0,0.13 0,0.13 8.2,12.79 18.8,24.04 32.9,32.01 27.2,15.41 58.9,14.17 87.1,6.73 24.6,-6.6 46.5,-17.97 59.8,-27.19 96.3,-66.54 79.9,-251.36 64.5,-344.17 -2.3,-14.03 -4.5,-25.99 -6.4,-35.07 z m 90.3,-823.88 c 12.9,-4.38 126.6,-45.38 140.8,-134.6 12,-75.9 -54.7,-144.53 -91.6,-170.25 -145.3,-101.045 -414.3,56.67 -485.6,102.01 0.5,1.42 1.1,2.66 1.6,4.03 139.6,163.48 308.7,240.88 434.8,198.81 z m -485.9,-155.24 c -2.4,-5.22 -4.6,-10.31 -6.7,-15.54 -209.9,45.52 -357.3,157.14 -379.8,288.34 -2.2,13.46 -20,132.97 51.9,187.83 42.9,32.72 101.2,29.4 145.9,17.58 19,-5.1 35.5,-11.69 47.4,-17.71 149.3,-75.77 147,-358.75 141.3,-460.5 z m 115.1,-683.517 c 12.9,-4.384 126.6,-45.342 140.8,-134.607 11.9,-75.892 -54.8,-144.478 -91.7,-170.204 -141.7,-98.341 -400.2,48.529 -479.4,98.164 4.1,8.944 8.3,18.021 12.4,27.1 136.1,150.279 296.9,220.414 417.9,179.547 z m -485.8,-150.148 c -3.1,-6.598 -6.3,-13.328 -9.3,-19.925 -208,46.05 -355.1,157.009 -377.3,287.763 -2.3,13.505 -20,132.967 51.8,187.696 43,32.72 101.3,29.445 146,17.623 19,-5.094 35.3,-11.558 47.3,-17.623 147,-74.654 147.1,-349.797 141.5,-455.534 z m 2628.3,3660.775 c -26.8,39.85 -82.5,36 -93.5,34.9 -62.5,-6.87 -117.8,-71.07 -141.4,-163.61 -83.7,-48.27 -166,-99.14 -246.7,-152.36 31.5,66.28 70.6,178.08 17.5,247.38 -19.6,25.55 -66.7,65.84 -120.3,54.86 -63.5,-13.06 -86.8,-88.96 -89.2,-97.63 -22.3,-77.93 25.7,-175.17 121.9,-251.64 -142,-97.45 -278.3,-203.19 -407.4,-317.47 34.8,74.65 75.1,195.27 17.3,270.63 -21.7,28.29 -74.2,72.83 -133.1,60.75 -69.7,-14.3 -95.8,-98.57 -98.6,-108.09 -25.2,-88.38 30.1,-199.2 141.4,-285.41 l 1.5,-2.61 c -125,-116.06 -242.3,-240.52 -350.7,-372.38 31.4,90.63 54,210.67 -9.1,285.59 -27.5,32.46 -92.1,82.62 -161.3,65.04 -81.9,-20.9 -108.1,-122.65 -110.7,-134.2 -25.3,-107.24 48,-237.33 187,-334.79 -55,-72.48 -107.8,-146.6 -157.6,-222.76 -65.8,-101.05 -125.4,-207.36 -176.6,-317.08 8.3,104.5 -0.6,240.79 -89.7,302.38 -37.6,25.99 -119.1,59.95 -185.8,22.14 -17.1,-9.79 -30.5,-22.72 -40.9,-37.15 -37.4,-51.99 -36.5,-123.58 -36.2,-133.63 4.1,-119.2 117.8,-234.15 291.2,-296.45 l 0.2,-0.13 c -37.5,-91.03 -73.1,-182.33 -108.9,-273.37 -19.1,-48.26 -38.3,-96.53 -57.7,-144.66 -58.4,-145.98 -119.3,-291.08 -181.3,-435.56 -2.3,135.14 -29.6,335.49 -163.5,403.55 -50.9,25.59 -156.8,53.89 -232.2,-3.59 -89.1,-67.79 -68.5,-207.35 -65.9,-223.03 23.5,-137.61 165.7,-254.9 369.2,-308.92 10.3,-2.75 21.3,-4.83 32,-7.18 -45.1,-103.65 -90.6,-207.218 -136.2,-310.609 -57.6,-130.043 -115.4,-260.134 -174.4,-389.514 -2.2,135.27 -29.3,336.027 -163.5,404.082 -50.7,25.727 -156.7,53.932 -232.2,-3.409 -88.8,-67.79 -68.5,-207.354 -65.8,-223.161 23.5,-137.662 165.6,-254.777 369.1,-308.84 9.4,-2.48 19.1,-4.251 28.6,-6.465 C 13570.7,222.055 13516.9,110.252 13460.5,0 h 87.9 c 48.5,98.5637 94.9,198.013 140.1,297.815 48.8,-30.375 150.3,-88.423 258.3,-117.159 90.4,-23.912 185.3,-27.497 257.5,22.847 46.7,32.456 121.8,112.333 106.9,206.114 -17.4,110.519 -150.1,158.516 -165.2,163.608 -114.9,39.186 -258.5,-8.811 -388.8,-122.651 56.5,127.743 111.8,255.884 167,384.024 43.5,101.619 86.9,203.502 129.9,305.382 46.2,-29.26 151.4,-90.72 263.7,-120.57 90.4,-23.949 185.3,-27.358 257.4,22.81 46.8,32.45 121.8,112.51 107,206.11 -17.5,110.43 -150.1,158.56 -165.3,163.65 -120,40.12 -271.8,-13.63 -406.5,-138.76 62.7,150.14 124.1,301 183,452.78 21.7,54.6 42.4,109.46 63.2,164.19 30.1,79.87 59.9,159.62 91.4,238.44 13.8,-11.16 31.8,-25.07 52.8,-39.77 49.4,-34.62 115.5,-73.68 183.2,-91.56 52.8,-14.04 106.3,-15.15 153.1,8.81 40.8,20.76 109.2,76.42 107.6,153.16 -2,90.72 -102.3,143.01 -113.8,148.77 -90.8,44.81 -216.1,18.82 -335.4,-65.04 53.5,123.75 113.4,244.06 188.3,356.65 45.6,71.38 93.6,140.94 143.9,209.17 38,-53.79 134.4,-175.47 242.9,-204.34 25.3,-6.6 51.2,-8.23 77.2,-2.88 41.5,8.64 116.4,41.93 133.6,111.1 20.2,81.51 -56.8,153.16 -65.5,161.13 -71.7,63.53 -193.7,69.6 -323.7,20.36 114.2,146.16 239.3,283.78 373.8,411.83 31.5,-48.44 108.8,-154 199.4,-178.08 18.6,-4.96 37.6,-6.47 57.2,-3.28 35.2,5.62 99.4,30.64 116.6,88.38 19.9,66.55 -36.8,126.77 -48.5,138.19 -50.9,49.5 -136.5,63.14 -232.1,40.29 121.5,108.75 249.8,209.84 383.5,303.75 22.9,-36.88 96.5,-144.92 184.3,-168.3 16.8,-4.43 34.1,-5.8 51.6,-3.01 31.8,5.05 89.6,27.76 105.3,80.01 18.4,61.59 -37.2,118.35 -43.7,124.69 -42.6,41.53 -112.4,54.33 -190.8,39.45 67.2,44.46 135.5,87.18 204.8,128.18 l 2.3,-0.44 c 6.9,-1.19 169.4,-28.6 217.3,53.22 12.2,20.9 26.8,65.45 3.6,99.98" /></g><g
         transform="scale(2.46199)"
         id="g30"><path
           id="path32"
           style="fill:#ffc8dd;fill-opacity:1;fill-rule:nonzero;stroke:none"
           d="M 16300,0 H -0.00158662 V 8644.86 C 674.295,8070.61 1576.64,6764.03 3521.82,6163.14 c 2161.26,-667.63 3168.53,289.96 4252.12,-641.88 1024.58,-881.28 914.95,-2256.1 1297.41,-3223.93 131.52,-332.87 321.36,-617.63 635.54,-817.67 383.61,-244.2 959.61,-282.42 1875.61,14.98 558.7,181.4 1069.3,251.26 1532.6,240.91 18.3,-0.37 36.4,-0.86 54.6,-1.63 74.7,-2.64 148.2,-7.43 220.3,-14.26 C 14863.5,1581.69 15820.5,629.654 16300,0" /></g><g
         transform="scale(1.29915)"
         id="g34"><path
           id="path36"
           style="fill:#bde0fe;fill-opacity:1;fill-rule:nonzero;stroke:none"
           d="m 4333.68,10758.4 c -71.41,685.8 35,1141.9 137.86,1582.9 90.65,388.7 184.39,790.5 146.74,1334.8 -56.73,820 -392.07,1638.9 -995.88,2436.2 656.03,-454.4 1127.55,-986.1 1401.83,-1582.5 386.76,-842.6 359.57,-1654.6 359.24,-1662.7 -22.43,-571.9 -193.1,-991.4 -266,-1170.6 l -13.62,-33.6 c -283.41,-712.7 -258.2,-1737.97 73.66,-3046.67 -12.32,4.54 -26.36,12.24 -41.71,23.47 -256.58,187.2 -696.63,1105.72 -802.12,2118.7 z M 6271.02,13102 c 1.53,-337.1 -72.41,-860.9 -284.45,-1320.1 -11.78,-25.5 -26.16,-55.5 -42.82,-90.4 -55.43,-115.8 -139.19,-290.8 -240.02,-535.5 -1.4,-3.1 -139.95,-312.3 -228.82,-610.7 -200.32,-672.56 -209.41,-1202.83 -215.45,-1553.68 -2.34,-136.01 -4.8,-257.93 -21.38,-325.05 -320.22,1278.06 -343.78,2277.53 -68.41,2970.13 l 13.41,33.1 c 74.31,182.6 248.3,610.2 271.17,1194.4 0.33,8.3 28.49,836.5 -365.65,1695.2 -265.8,577.9 -712.44,1095.4 -1328.31,1541.7 462.01,-176.3 1034.59,-485.5 1537.65,-1024.4 314.49,-336.8 968.82,-1037.8 973.08,-1974.7 z M 5666.83,7262.19 c -163.47,460.84 -298.94,899.2 -403.57,1304.31 59.76,54.42 63.12,195.98 67.03,423.97 5.97,346.92 14.96,871.34 212.53,1534.63 87.48,293.7 224.12,598.7 225.93,602.8 100.57,244 183.79,417.9 238.87,533 16.89,35.3 31.35,65.5 43.27,91.4 216.91,469.7 292.53,1005.3 290.97,1350 -4.36,964.7 -671.51,1679.3 -992.17,2022.8 -624.13,668.6 -1353.33,989.9 -1855.12,1141.8 l -109.23,33.1 71.31,-89.1 c 664.8,-830.8 1031.85,-1685.2 1090.97,-2539.7 36.87,-533.7 -51.5,-912.6 -145.07,-1313.7 -104.23,-446.8 -211.98,-908.8 -139.32,-1606.5 109.09,-1047.45 557.42,-1969.05 830.81,-2168.64 28.73,-20.94 55.88,-34.02 81.17,-39.18 7.36,-1.46 14.55,-2.16 21.58,-2.31 104.89,-404.96 240.17,-842.55 403.3,-1302.31 4.32,-12.16 14.6,-20.55 26.4,-22.94 6.07,-1.23 12.55,-0.92 18.8,1.39 18.46,6.54 28.1,26.78 21.54,45.18" /></g><g
         transform="scale(1.11269)"
         id="g38"><path
           id="path40"
           style="fill:#bde0fe;fill-opacity:1;fill-rule:nonzero;stroke:none"
           d="m 12481.4,14797.2 c -482.6,-382.5 -802.2,-477.1 -1172.3,-586.7 -308.8,-91.5 -658.8,-195.1 -1164.6,-485 -1050.66,-602 -1999.16,-1679.5 -2819.12,-3202.7 l -23.87,-44.2 c -62.66,-115.9 -115.17,-219 -159.99,-306.9 -79.93,-157 -162.6,-319.24 -195.62,-321.94 -2.44,0.81 -9.28,6.83 -17.94,20.94 304.94,1153.2 847.35,2715.2 1708.15,3645 236,253.9 675.31,726.8 1402.09,1030.1 485.1,202.8 887.7,241.1 1181.8,269 64.3,6.1 123.7,11.8 178,18.5 725.3,88.9 1453.5,486.8 2167.8,1182.2 -300.8,-476 -664.2,-885.5 -1084.4,-1218.3 z M 7735.31,13391.6 c 198.19,308.3 724.58,1127 1712.36,1634.9 456.91,234.9 781.23,301.4 1491.93,447.2 232.5,47.6 496,101.7 819.8,172.8 622.1,136.7 1238.3,305.6 1835.3,501.2 -728.3,-733 -1469.7,-1151 -2205.7,-1241.2 -53.7,-6.6 -112.4,-12.2 -176.1,-18.3 -298.7,-28.3 -707.8,-67.2 -1203.1,-274.4 C 9268.2,14304.3 8821.88,13824 8578.98,13562.5 7737.32,12653.4 7197.94,11147 6885.88,9997.6 c -98.76,480.6 -33.83,2020.3 849.43,3394 z m 5993.19,2877.6 c -643,-217.2 -1310.7,-402.5 -1984.9,-550.6 -323.4,-71.1 -586.6,-125 -818.8,-172.6 -717.4,-147.2 -1044.93,-214.3 -1510.92,-453.9 -1005.33,-516.9 -1539.47,-1347.7 -1740.56,-1660.6 -915.04,-1423.1 -996.21,-3137.9 -829.54,-3556.49 1.8,-4.58 3.83,-8.08 5.72,-12.31 -182.76,-693.36 -279.18,-1237.72 -304.48,-1388.62 -2.88,-17.43 6.99,-34.15 22.84,-40.35 2.38,-0.99 4.86,-1.62 7.46,-2.07 20.08,-3.41 39.1,10.16 42.5,30.29 24.46,146.04 116.08,662.72 288.54,1326.34 3.97,-2.43 7.85,-5.3 12.04,-7.01 3.21,-1.26 6.51,-2.34 9.84,-3.06 84.9,-21.03 145.74,98.32 279.01,359.98 44.59,87.5 96.83,190 159.19,305.3 l 23.86,44.4 c 813.34,1510.7 1752.34,2578.5 2790.8,3173.5 498.5,285.7 844.1,388 1149,478.3 377.4,111.8 703.3,208.4 1197.1,599.7 496,393 914.9,889.9 1245.2,1476.7 l 47.2,83.9 -91.1,-30.8" /></g><g
         transform="scale(2.0692)"
         id="g42"><path
           id="path44"
           style="fill:#cdb4db;fill-opacity:1;fill-rule:nonzero;stroke:none"
           d="M 16003.3,0 H -0.0018878 V 6229.41 C 494.195,6196.98 908.094,6090.61 1255.37,5953.6 c 904.19,-356.9 1075.28,-811.18 2107.34,-991.88 1750.61,-306.3 2699.24,782.81 4050.34,202.15 481.88,-207.08 925.04,-574.32 1362.84,-1172.04 374.25,-511.02 1140.11,-979.85 2017.41,-1258.41 1019,-323.21 2188.6,-389.86 3070.4,32.28 383,183.41 662.6,443.8 1070.8,360.19 199.8,-40.98 369.3,-151.75 510.5,-292.96 9.6,-9.57 19.1,-19.33 28.5,-29.24 0,0 0,0 0,-0.15 104.9,-110.62 193.5,-237.43 266.7,-362.89 31.8,-54.32 60.8,-108.35 86.9,-160.74 42,-84.18 76.9,-164.17 104.7,-233.81 44.3,-109.85 71.5,-194.47 83.2,-230.67 0,0 285,-884.54 -11.7,-1815.43" /></g><g
         transform="scale(3.59889)"
         id="g46"><path
           id="path48"
           style="fill:#bde0fe;fill-opacity:1;fill-rule:nonzero;stroke:none"
           d="M 16300,9167.35 V 4402.64 c -781.6,299.5 -2098.5,639.3 -3324.9,181.02 -1225.8,-458 -2440.5,-309.4 -3265.6,384.51 -582.18,489.57 -887.36,1462.11 -947.6,1640.29 -287.15,848.97 -131.57,1185.39 -483.71,1502.67 -439.19,395.79 -992.64,153.16 -1432.97,388.28 -14.14,7.51 -28.12,15.54 -42.01,24.16 -50.57,31.16 -99.48,69.38 -146.43,116.32 -148.41,148.58 -231.94,340.22 -275.42,527.46 H 16300" /></g><g
         transform="scale(2.87372)"
         id="g50"><path
           id="path52"
           style="fill:#ffafcc;fill-opacity:1;fill-rule:nonzero;stroke:none"
           d="m 14584.8,6440.35 c -374,-202.73 -659.1,-249.81 -934.8,-295.36 -242.9,-40.12 -494,-81.64 -795.4,-231.69 -453.9,-226.01 -841.4,-610.6 -1153.2,-1143.08 104,481.26 295.7,875.59 570.8,1172.8 388.8,419.49 858,595.78 862.8,597.52 331.2,122.31 610.6,124.12 729.9,124.92 l 22.4,0.18 c 473.2,6.82 1051.6,263.38 1719.1,761.69 0.3,-8.11 -0.8,-17.92 -3.5,-29.33 -46.2,-190.45 -465.7,-658.24 -1018.1,-957.65 z m -1793.4,550.54 c 191.8,80.53 507.8,162.09 819.6,149.74 17.3,-0.7 37.8,-1.81 61.6,-3.06 79.1,-4.25 198.7,-10.61 361.9,-10.3 2.2,-0.07 211.1,-5.99 402.2,13.85 430.6,44.71 735,164.8 936.4,244.24 78,30.8 148.1,58.19 190.3,64.59 -652.8,-484.42 -1216.9,-733.96 -1676.7,-740.61 l -22,-0.17 c -121.7,-0.8 -406.4,-2.64 -744.8,-127.6 -4.8,-1.78 -483.5,-181.37 -879.8,-608.87 -266.6,-287.99 -456,-664.81 -564.9,-1121.22 -8.7,304.97 32.3,704.34 220.6,1118.34 117.7,258.82 362.6,797.32 895.6,1021.07 z m 3471.1,1035.17 c -224,-202.03 -441.8,-382.77 -648.1,-538.15 -45.1,21.23 -126.6,-10.3 -257.4,-61.9 -199.1,-78.58 -500.1,-197.31 -924.9,-241.39 -188,-19.56 -394.1,-13.71 -396.9,-13.65 -162.8,-0.31 -281.6,6.03 -360.2,10.23 -24.1,1.29 -44.8,2.41 -62.3,3.07 -319,12.66 -642.1,-70.75 -838.2,-153.04 -548.8,-230.4 -798.5,-779.45 -918.5,-1043.32 -233.6,-513.69 -244.5,-1005.18 -212.5,-1327.06 l 6.9,-70.05 34,61.7 c 316.4,575.11 716.7,986.18 1189.7,1221.69 295.5,147.09 532.3,186.24 783,227.68 279.3,46.15 568.1,93.85 948.5,300.07 571.3,309.6 990.6,782.85 1039.8,985.79 5.1,21.33 6.2,39.91 3.1,55.54 -0.9,4.52 -2.2,8.8 -3.7,12.84 206,155.44 423.4,335.91 647,537.49 5.9,5.36 8.2,13.18 6.8,20.47 -0.8,3.74 -2.5,7.37 -5.2,10.39 -8.1,8.98 -22,9.68 -30.9,1.6" /></g><g
         transform="scale(3.59889)"
         id="g54"><path
           id="path56"
           style="fill:#a2d2ff;fill-opacity:1;fill-rule:nonzero;stroke:none"
           d="M 16300,9167.35 V 5495.89 c -143.7,91.28 -231.5,100.25 -307.3,123.73 -610.8,189.23 -1243.2,-2018.65 -2541.8,-2222.99 -667,-104.92 -1403.8,335.41 -1744.8,819.56 -274.7,390.18 -391.7,949.9 -548,1697.75 -99,474.06 -127.9,800.82 -410.5,1048.89 -111.6,97.94 -165.6,101.73 -687.7,296.21 -962.62,358.59 -1122.42,477.92 -1226.51,570.12 -112.56,99.69 -348.22,313.86 -458.67,678.29 -84.58,279.08 -58.46,523.36 -32.95,659.9 H 16300" /></g><g
         transform="scale(3.59889)"
         id="g58"><path
           id="path60"
           style="fill:#ffafcc;fill-opacity:1;fill-rule:nonzero;stroke:none"
           d="M 16300,9167.35 V 6447.37 c -338.4,-393.81 -623.8,-529.02 -813.4,-592.09 -147.5,-49.1 -596.1,-198.37 -899.6,22.59 -144.5,105.28 -229.4,274.92 -290,396.32 -126.7,253.16 -97.6,440.4 -166.6,534.45 -254.6,347.48 -838.4,435.23 -2107,894.88 -1007.9,365.15 -1327.7,970.8 -1418.1,1463.83 H 16300" /></g><g
         transform="scale(3.59889)"
         id="g62"><path
           id="path64"
           style="fill:#ffffff;fill-opacity:1;fill-rule:nonzero;stroke:none"
           d="m 16300,8816.94 v -51.42 l -155,-100.35 -1.2,-0.52 C 15273,8233.31 14385.2,8014.83 13504,8014.83 c -22.4,0 -44.9,0.17 -67.3,0.44 -764.6,9.66 -1230.7,179.47 -1724.3,359.21 -435.4,158.68 -885.8,322.79 -1581.4,393.71 -984.35,100.53 -1548.99,-59.96 -2146.7,-229.86 -458.37,-130.21 -932.32,-264.9 -1630.45,-298.89 -584.35,-28.48 -1184.98,48.4 -1785.27,228.48 -516.69,155.06 -1044.16,389.32 -1575.49,699.43 h 86.28 c 1118.09,-639.03 2215.32,-936.29 3272.31,-884.86 693.22,33.74 1164.78,167.74 1620.78,297.35 601.85,171.1 1170.39,332.63 2162.94,231.33 700.9,-71.54 1153.8,-236.6 1591.9,-396.14 489.9,-178.44 952.8,-347.04 1709.9,-356.62 896,-11.48 1799.9,205.45 2686.4,644.3 l 176.4,114.23" /></g><g
         transform="scale(2.60156)"
         id="g66"><path
           id="path68"
           style="fill:#ffffff;fill-opacity:1;fill-rule:nonzero;stroke:none"
           d="m 16300,0 h -90.3 c -636.5,556.474 -1322,957.54 -2046.3,1196.13 -1343.3,442.62 -2267.2,173.32 -3337,-138.46 C 9793.72,756.507 8623.23,415.25 6839.31,683.013 6533.65,728.947 6238.32,788.295 5952.92,845.684 4950.41,1047.29 4084.5,1221.34 3375.26,688.624 3144.29,515.153 2954.02,284.675 2806.25,0 h -67.08 c 153.73,305.317 354.51,551.822 600.15,736.366 730.77,548.704 1608.82,372.164 2625.32,167.821 C 6249.43,846.876 6543.91,787.68 6848.15,742.093 8619.04,476.252 9782.96,815.471 10809.7,1114.98 11889,1429.64 12821,1701.29 14182,1252.82 14933.4,1005.28 15643,585.111 16300,0" /></g><g
         transform="scale(1.49568)"
         id="g70"><path
           id="path72"
           style="fill:#ffffff;fill-opacity:1;fill-rule:nonzero;stroke:none"
           d="M 1832.04,8419.83 C 1640.61,7876.26 1279.14,7375.89 786.254,6972.66 551.438,6780.84 289.003,6610.62 -0.00261168,6463.4 v 121.28 C 853.523,7034.17 1461.64,7680.43 1734.25,8454.26 2011,9240.72 1900.96,10087.4 1446.9,10664 c -813.862,1033.5 -587.359,2005.2 -273.85,3350.1 80.14,344.2 163.19,700.1 237.52,1092.5 66.44,350.9 -0.2,618.3 -198.49,794.8 -263.878,235 -727.501,293.8 -1212.08261168,272.8 v 105.5 C 505.342,16300 994.079,16234.6 1281.02,15979 c 227.33,-202.4 305.19,-502.6 231.49,-891.9 -74.75,-394.3 -157.99,-751.4 -238.35,-1096.6 -307.065,-1316.6 -528.596,-2267.9 254.34,-3262.2 475.66,-604.4 592.13,-1488.85 303.54,-2308.47" /></g><g
         transform="scale(2.02405)"
         id="g74"><path
           id="path76"
           style="fill:#ffafcc;fill-opacity:1;fill-rule:nonzero;stroke:none"
           d="m 11940.2,14478.6 c -26.7,-33.3 -96,-92.1 -167.2,-75.8 -85.3,19.5 -117.1,136.8 -118.4,141.9 -28.6,108.6 34.4,242.2 163,355.8 22,9.3 43.6,19 65.1,29.4 45.2,-86.5 156.1,-328 57.5,-451.3 z m -533.3,677.2 c -8,18.5 -16.3,48.1 -17.9,79.9 -1.7,35.7 4.9,74.3 30.3,103.3 56.7,64.7 168.7,40 181.3,37.1 122.5,-29.6 218.4,-176.4 248,-377 -4.6,-2.3 -9.2,-4.3 -13.7,-6.6 -94.6,0.8 -365.6,16.1 -428,163.3 z m -415.8,-934.5 c -29.7,-27.8 -102.9,-74 -167.6,-49 -76.3,29.2 -91.2,137.4 -92.7,149.6 -13.4,114.6 78.8,243.7 237.3,335.7 8.8,1.9 17.5,4 26.2,5.8 29,-79.3 110.4,-335.5 -3.2,-442.1 z m -412.4,712.5 c -3,11.6 -5.8,27.4 -6.7,45.1 -2,41.7 6,93.9 43,125.8 61.8,53.1 164.3,15 175.6,10.6 111.6,-44.4 181.8,-195.2 183.6,-387.6 -6.5,-1.5 -13,-3 -19.4,-4.6 -94.5,14.9 -337.7,66.8 -376.1,210.7 z M 10180,14051 c -29.6,-27.9 -102.8,-74 -167.7,-49.1 -76.08,29.3 -90.95,137.5 -92.48,149.7 -13.54,119.4 86.68,254.4 257.38,347.1 1.3,0.1 2.5,0.4 3.9,0.7 26.7,-71.6 115.5,-339 -1.1,-448.4 z m -412.25,712.3 c -3.21,11.7 -5.83,27.6 -6.77,45.3 -2.12,41.7 6.03,93.9 42.98,125.6 62.01,53.4 164.18,15.2 175.69,10.6 111.85,-44.5 182.85,-195.7 183.65,-389.7 -5.1,-1 -10,-2 -15.1,-3 -90.9,13.9 -341.62,65.2 -380.45,211.2 z m -492.04,-766.2 c -19.76,-24.2 -70.69,-67 -122.28,-54.9 -61.8,14.6 -84.53,100.8 -85.42,104.5 -22.87,88.8 37.9,200.2 155.24,288.9 2.91,0.6 5.68,1.1 8.59,1.5 31.62,-60.3 119.07,-247.3 43.87,-340 z m -391.64,511.7 c -5.53,13.5 -11.51,34.8 -12.74,58 -1.24,26.2 3.65,54.5 22.38,75.6 42.04,47.4 128.9,26.7 132.55,25.8 90.66,-22.4 161.12,-132.3 182.11,-282 -63.98,0.5 -277.36,10.1 -324.3,122.6 z m -197.77,-682 c -11.51,-26 -45.9,-75.8 -94.07,-77.4 -56.47,-1.9 -95.75,63.9 -100.04,71.6 -42,74 -13.64,189.5 71.83,297.5 41.26,-44.2 166.9,-190.7 122.28,-291.7 z m -469.16,360.3 c -12.3,15.9 -29.64,47.4 -31.32,79.7 -0.59,13.6 1.38,27.2 7.66,39.9 25.64,51.9 106.96,54 110.32,54.2 85.18,1.8 173.51,-77.6 228.16,-204.4 -58.45,-15.3 -247.03,-56.6 -314.82,30.6 z m -64.13,-594.7 c -8.15,-21.3 -33.79,-62.4 -71.83,-65.4 -45.26,-3.8 -80.68,51.1 -82.21,53.4 -36.22,57.6 -18.28,151 45.4,241.2 37.6,-37.1 140.21,-147.9 108.64,-229.2 z m -394.3,278.5 c -10.92,12.9 -27.03,39.2 -28.26,66.2 -0.6,9.4 0.78,18.9 4.79,28 18.23,41.7 83.3,46.8 86.06,47.1 67.79,4.6 141.45,-55.4 190.86,-154.2 -50.49,-15.7 -196.83,-53.3 -253.45,12.9 z m -44.17,-606 c -7.22,-18.6 -29.35,-54.4 -62.16,-57.1 -39.27,-3.1 -70.1,44.6 -71.34,46.8 -31.62,50.1 -16.1,131.5 39.13,210.5 43.87,-43.5 119.37,-136 94.37,-200.2 z m -347.23,247.9 c -9.48,11.2 -23.61,34.2 -24.7,57.7 -0.45,8.1 0.79,16.2 4.15,24.1 15.81,36.2 72.43,40.5 74.7,40.6 59.39,4.1 123.52,-48 166.94,-134.2 -58.94,-18.1 -176.13,-40.5 -221.09,11.8 z m -63.48,-409.7 c -14.63,-4.7 -41.16,-6.9 -54.8,7.3 -6.62,6.9 -9.19,16.4 -9.68,25.7 -0.74,14.9 3.85,29 4.15,29.9 12.3,37.5 60.13,64.2 123.96,70.5 -4.59,-44.1 -21.15,-119.2 -63.63,-133.4 z m 5484.47,3197 c -4.9,-17.8 -10.1,-35.6 -15.6,-53.2 -40.3,-137.2 -89.3,-271.9 -151.2,-400.3 -121.8,-256.9 -288.5,-495.2 -507.3,-676.6 -5.8,-4.9 -11.7,-9.8 -17.7,-14.5 -49.2,-39.9 -100.7,-74.3 -154.6,-107 -20.5,-11.5 -41.2,-22.5 -62.1,-33.4 -33.8,208.3 -137.9,361 -271.6,393.2 -14.6,3.5 -144.3,31.9 -213.9,-47.6 -58.7,-67.2 -38.9,-168.6 -18,-217.8 58.6,-137.8 263.5,-172.9 390.1,-181.4 -5.1,-2.1 -10.3,-4.4 -15.5,-6.6 -131.5,-55 -269.1,-97.7 -408.3,-136 -111.1,-30.3 -223.2,-57.4 -335.7,-83.5 -0.1,8.7 0.2,17.8 -0.2,26.4 -9.6,190.1 -86.6,337.7 -203.8,384.3 -13.5,5.2 -133,49.6 -209.6,-16.3 -64.8,-56 -59.8,-154.9 -46.6,-204.6 35,-131.3 207.2,-193 326.5,-220.3 -125.5,-28 -251.3,-54.7 -377.2,-81 -100,-21.1 -200,-41.8 -300.1,-62.2 -0.1,10 0.2,20 -0.2,29.6 -9.7,190.1 -86.6,337.9 -203.8,384.5 -13.49,5.2 -132.85,49.7 -209.58,-16.4 -64.87,-55.9 -59.83,-154.8 -46.64,-204.5 34.83,-131.4 206.82,-193 325.92,-220.3 -139.51,-27.8 -279.13,-54.3 -419.19,-78.6 -133.15,-23.6 -266.8,-44.3 -400.74,-68.7 l -0.14,0.1 c -22.43,165 -102.67,287.1 -207.26,313 -11.22,2.8 -111.12,25.3 -165.41,-36 -46.05,-51.9 -31.28,-130.3 -15.37,-168.3 37.6,-90.4 156.52,-123.9 250.54,-136.1 -106.62,-24.7 -211.85,-57.4 -313.58,-96.7 -76.68,-29.7 -152.17,-62.4 -226.43,-97.4 -59.98,141.3 -161.26,230.4 -260.81,228.1 -10.77,-0.1 -105.58,-4.1 -139.47,-72.5 -28.56,-57.9 3.65,-124.5 27.17,-154.8 54.44,-70 164.77,-72.6 250.68,-61.6 -136.85,-71.3 -268.81,-151.5 -394.9,-240.2 l -2.02,1.8 c -55.39,114.5 -142.84,184.3 -225.84,178.6 -8.89,-0.8 -88.19,-8 -113.98,-66.9 -21.79,-49.8 7.66,-104.6 28.66,-129.2 55.88,-65 170,-52.1 242.43,-35.4 -125.19,-92.7 -244.26,-193.3 -357,-300.6 -49.56,99.6 -126.43,160.2 -199.6,155.1 -8.16,-0.6 -79.65,-6.9 -103.11,-60.4 -19.77,-45.4 7.06,-94.7 25.93,-116.7 51.39,-60 157.56,-46.5 221.98,-31 -62.3,-61.4 -122.72,-124.5 -181.02,-189.5 -86.36,-3.5 -153.4,-40.4 -171.24,-94.2 -3.06,-9.5 -16.85,-58 13.39,-89.3 26.09,-26.9 68.28,-22.4 88.98,-15.5 81.32,26.8 87.6,175.7 87.89,181.9 v 2.4 c 49.26,53.5 99.9,105.8 151.73,156.7 -27.77,-66.5 -29.6,-130.5 -0.89,-175.9 4.3,-6.9 44.17,-66.8 102.02,-62 49.26,4 80.09,50.9 90.51,77.9 5.83,15.1 7.81,30.6 7.07,46.2 -4.15,82.1 -85.92,167.4 -114.33,194.5 108.15,100.5 221.69,195 340.76,282 -38.19,-80.2 -42.34,-158.5 -7.96,-212.8 7.81,-12.4 50.3,-73.8 112.89,-68.7 54.3,4.3 88.39,56.5 100.05,86.5 6.42,16.6 8.75,33.8 7.81,51.1 -4.3,84.7 -83,172.8 -119.96,209.8 138.53,94.8 283.69,179.6 434.33,253.1 -68.13,-105.9 -85.47,-214.6 -42.79,-290 5.34,-9.3 54.15,-90.8 130.09,-88.2 64.27,2.2 107.7,62.2 123.22,97.3 9.78,21.9 13.19,45.1 11.95,68.7 -5.09,101.4 -94.66,209.4 -134.87,253.2 69.66,31.6 140.26,61 211.9,87.9 113.53,44.9 231.02,75.5 350.53,99.4 -96.64,-89.8 -142.98,-195.5 -120.4,-284.3 2.91,-11.2 30.19,-109.7 110.13,-128.6 67.53,-15.8 129.49,34.2 155.58,66.3 29.93,37 38.98,84.5 36.51,133.8 -4.45,90.1 -47.39,185.6 -71.79,233.3 127.47,22 256.51,39.2 384.92,61.1 145.3,23.5 290.11,49.6 434.65,76.9 -135.94,-95.8 -211.88,-219.9 -198.98,-333.4 1.68,-14.4 19.16,-140.7 113.68,-176.9 79.9,-30.7 164.8,20.7 202.2,55.8 58,54.5 72.7,139 68.4,223.3 -5.2,104.9 -39.7,209.4 -56.9,255.7 98.2,19 196.2,38.2 294.3,57.6 123.7,24.7 247.3,49.5 370.8,75.4 -125.1,-93.7 -194.5,-211.7 -181.5,-320.6 1.7,-14.3 19.3,-140.5 113.7,-176.7 80.1,-30.9 164.8,20.5 202.4,55.8 58,54.3 72.5,138.8 68.4,223.2 -5.1,101 -37.3,201.6 -55.1,250.4 111.5,24.6 223.1,50.3 334,79.3 127.2,33.5 253.9,71.4 377.9,119.1 -98.8,-109.1 -143.5,-230.3 -116.6,-332.9 3.7,-14.6 40.2,-142.3 143.1,-165.9 87,-19.9 166.9,45.6 200.6,87.3 38,47.6 49.7,108.5 46.4,171.8 -6.1,122.9 -67.9,254.7 -100,315.3 22.9,11.5 45.7,23.5 68.4,35.8 64,37.9 127.6,79.9 184.4,127.2 2,1.5 3.9,3.2 5.8,4.7 228.8,187.2 403.7,432.4 531.7,695 65.5,132.6 117.5,271.3 160.6,411.9 8.6,26.9 16.7,53.7 24.2,80.7 h -99.4" /></g><g
         transform="scale(2.00502)"
         id="g78"><path
           id="path80"
           style="fill:#cdb4db;fill-opacity:1;fill-rule:nonzero;stroke:none"
           d="m 14171.2,15104.3 c 2.9,-11.9 26.9,-117.2 -33.5,-171.1 -27.2,-24.2 -63.4,-30.8 -97.1,-29.4 -30,1.2 -58,8.8 -75.5,16.1 -139.3,57.8 -156,313.1 -157.4,402.2 2,4.3 3.9,8.7 6.1,13 189.2,-26.3 328.4,-115.4 357.4,-230.8 z m -450.4,200.8 c -105.7,-122.2 -231.2,-182.8 -334.1,-156.8 -4.6,1.3 -115.5,30.2 -134.7,110.6 -15.9,66.9 38.9,132.7 70,158.1 115.5,94.2 344.3,-8.5 426.1,-50.3 -9.6,-20.3 -18.6,-40.9 -27.3,-61.6 z m 211.3,-966.5 c 4.3,-10.8 41,-107 -8.5,-165.7 -29.8,-35.2 -78.9,-43.2 -118.4,-41.7 -16.5,0.8 -31.5,3.1 -42.6,6.1 -135.9,34.8 -186.9,263.7 -201.6,352.6 1.4,6.2 2.8,12.4 4.2,18.5 181.3,0 324.1,-65.2 366.9,-169.8 z M 13499,14502 c -85.4,-150.1 -206.2,-238 -314.4,-226.4 -11.6,1.2 -113.8,14.4 -142,85.9 -24,60.9 18.9,130.3 44.9,158.5 99.6,108.1 341.7,33.4 416.8,6.8 -1.7,-8.2 -3.6,-16.4 -5.3,-24.8 z m 279.1,-929.6 c 4.4,-10.8 41.2,-106.8 -8.5,-165.7 -29.7,-35.1 -78.7,-43.2 -118.1,-41.6 -16.6,0.7 -31.7,3.2 -42.6,6 -138.2,35.5 -188.7,271.3 -202.5,357 0.9,4.8 1.9,9.4 2.7,14.2 183,0.8 326.1,-64.9 369,-169.9 z m -422.3,182.6 c -86,-161.8 -212.4,-257.4 -325.1,-245.6 -11.7,1.2 -113.7,14.4 -141.9,86 -24,60.8 18.8,130.2 44.8,158.6 102.2,110.7 355.1,29.1 422.8,4.6 -0.1,-1.2 -0.4,-2.5 -0.6,-3.6 z m 169.6,-1083.8 c 0.7,-3.6 21,-85.2 -23.4,-125.3 -19.7,-17.8 -46.3,-22.6 -71.1,-21.7 -21.8,1 -42,6.4 -54.8,11.6 -106.3,43.3 -117.3,244.4 -118.2,304.8 141.2,-18.7 245.5,-84.2 267.5,-169.4 z m -315.4,182.9 c -82.7,-111.3 -187.2,-169.6 -271.2,-148.8 -3.3,0.9 -84.8,21.7 -99.1,79.7 -11.9,48.7 27.9,97 50.7,115.7 86.9,71.7 263.7,-9.1 321,-38.5 -0.4,-2.7 -0.9,-5.3 -1.4,-8.1 z m 31.5,-866.7 c 0,-3.2 -1.4,-79.7 -50.2,-104.5 -12,-5.9 -24.8,-8.1 -37.5,-7.5 -30.5,1.3 -60.4,17.4 -75.4,28.8 -82.7,63.2 -45.4,241.3 -31.5,296.6 119.9,-50.5 195.6,-133 194.6,-213.4 z m -510.7,173.2 c -7.1,3.8 -69.7,40.4 -68.3,93.7 1.1,45.4 47.7,78.3 72.4,89.3 94.8,42.9 233.8,-74.3 276,-112.9 -101.3,-81.6 -209.9,-109.2 -280.1,-70.1 z m 185.9,-631.2 c -0.1,-2.6 -4.3,-63.9 -43.7,-81.4 -8.5,-3.9 -17.3,-5.1 -26.3,-4.8 -25.4,1 -50.5,15.9 -62.6,26.1 -62.9,52.9 -28.6,191.2 -14.4,238.9 93.7,-45.7 150.8,-114.6 147,-178.8 z m -408.4,164.1 c -2.4,1.4 -54.4,34.3 -51.1,77.1 2.4,35.8 41,60.2 61,68.1 76.4,30.5 181.6,-65.3 217,-100.3 -84.6,-60.9 -172.4,-78.6 -226.9,-44.9 z m 56.3,-544 c -0.1,-2.3 -3.7,-55.7 -37.7,-70.9 -7.3,-3.3 -15.1,-4.5 -22.7,-4.2 -22.1,0.9 -44,13.9 -54.5,22.9 -49.9,41.9 -29.6,152.6 -13,208.5 81.7,-40.3 131.4,-100.5 127.9,-156.3 z m -360.2,147.2 c -2,1.2 -47.4,29.8 -44.6,66.8 2.1,31 35.8,52.3 53.1,59.1 60.6,24.1 148.4,-46.2 189.6,-87.4 -74,-52.6 -150.5,-68 -198.1,-38.5 z m -80.6,-319.1 c -0.9,-0.3 -14.2,-4.6 -28.3,-4 -8.7,0.3 -17.6,2.6 -24.3,8.8 -13.4,12.9 -11.6,37.8 -7.3,51.6 13.1,40.3 83.8,56.4 125.2,61.2 -5.5,-60.3 -30.2,-105.7 -65.3,-117.6 z m 2445,5169.7 c -248.8,-123.9 -480.3,-292.6 -655.3,-512.5 -44.1,-54.1 -83.2,-114.3 -118.4,-175 -11.4,-21.5 -22.4,-43.1 -33.1,-64.9 -57.6,29.7 -182.3,87 -298.1,91.8 -59.8,2.5 -117.1,-8.9 -161.6,-45.3 -39.2,-31.9 -100.3,-107.8 -80.8,-189.8 23.1,-96.9 143.9,-130.2 157.6,-133.6 97,-24.5 211,18.7 313.1,112.7 -44,-117.2 -78.7,-237.1 -109.2,-357.3 -26.4,-104.8 -49.7,-210.2 -72,-315.5 -46.2,16.3 -141.3,45.9 -236.5,49.7 -79.6,3.4 -159.2,-11.3 -210.1,-66.4 -32.8,-35.6 -80.5,-115.8 -50.9,-191.1 35,-88.8 154.1,-104.2 167.7,-105.6 102.7,-11.5 213.5,54.9 300.8,173.7 -23.6,-116.8 -45.9,-233.5 -68.1,-350.3 -17.4,-92.6 -34.8,-185.2 -51.8,-278 -43.8,15.8 -142.6,47.5 -241.6,51.6 -79.5,3.4 -159.1,-11.3 -210,-66.3 -32.8,-35.8 -80.5,-116.2 -50.8,-191.3 34.9,-88.7 154.1,-104.2 167.6,-105.6 107.3,-11.3 223.6,61.5 312.7,190.3 -24.5,-136.4 -47.7,-273.2 -68.8,-410.4 -19.5,-121.3 -34.8,-243 -54.4,-363.5 -45,22.6 -135.6,62.3 -220.5,65.8 -46.5,1.9 -91.2,-7 -125.9,-35.6 -30.1,-24.8 -76.7,-83.8 -61.2,-147.3 18.4,-75.1 111.7,-100.1 122.2,-102.7 83.8,-20.6 183.2,24 267,115.9 -21.6,-112.8 -49.4,-223.8 -90.9,-331.5 -24.6,-67.7 -51.9,-134.4 -81,-200.4 -41.7,37.6 -144.4,121.1 -239.9,125 -22.2,0.9 -44.2,-2.5 -64.8,-11.8 -32.9,-14.8 -89,-56.3 -90.5,-117.1 -1.9,-71.5 75.4,-116.9 84.2,-121.8 71.4,-39.7 173.8,-22.3 273.1,42.7 -68.2,-142.6 -146.9,-280.2 -235.1,-411.5 -35,34.4 -118.8,107.9 -198.7,111.3 -16.5,0.7 -32.6,-1.7 -48.2,-7.9 -28.2,-11.1 -77,-43.8 -80.7,-95 -4.4,-59.1 54,-98.5 65.8,-105.8 51.4,-31.9 125.2,-27.4 200.6,9.3 -81.2,-113.1 -169.3,-220.9 -263,-323.6 -26,26.5 -107.1,102.9 -184.5,106.1 -14.8,0.7 -29.4,-1.5 -43.5,-7.1 -25.4,-10.1 -69.4,-39.5 -72.8,-86 -4,-54.6 52.8,-91.7 59.3,-95.7 43.2,-26.6 103.5,-24.5 166.1,2.3 -47.8,-49.2 -96.7,-97.4 -146.7,-144.3 l -2,-0.2 c -6,-0.1 -146.4,-7.4 -171,-84.2 -6.4,-19.7 -10.2,-59.3 15.5,-83.8 29.6,-28.2 75.2,-14.9 84.2,-11.8 50.5,17.2 84.8,80.7 87.4,162.2 60.7,55.6 119.7,113.1 177,172.2 -13.9,-60.8 -25.8,-161 31.1,-209.1 21.1,-17.5 67.7,-42.4 110.3,-23.4 50.4,22.6 55.8,90.2 56.3,97.6 4.1,69.1 -53.8,141.1 -148,186.9 100.2,107.4 194.1,220.4 280.4,339.4 -15.2,-68.6 -26.4,-176.3 35.4,-228.3 23.4,-19.7 75.3,-47.1 122.1,-26.2 55.4,24.8 61.5,99.8 62.1,108.3 4.6,78.2 -61.8,160.1 -170.4,211.2 l -1.7,1.9 c 82.7,119.7 157.2,244.9 223.2,374.5 -9.5,-81.2 -6.2,-185.1 60.2,-235.9 28.8,-21.8 91.9,-51.7 146.1,-24.3 64.4,32.5 67.4,121.9 67.5,132 1.3,94 -83.8,188.7 -217.4,244 32.3,70.5 62.5,141.9 89.9,214.4 36.3,96.3 66.2,195.8 88.7,296.4 12.2,-88.4 44.7,-200.2 130.2,-235.1 36.1,-14.5 110.1,-27.7 158.7,16 57.3,51.7 35.3,145.7 32.6,156.2 -25.4,98.4 -141.1,173.2 -296.8,193 h -0.3 c 21.8,126.6 40.4,252.6 61.5,378.6 21.7,132.2 45.5,264 70.6,395.8 26.8,-112.1 86.4,-273.7 210.3,-305.6 47.1,-11.9 140.5,-15.9 192.7,45.7 61.5,73 18.8,185.3 13.6,197.8 -45,110.1 -184.9,181.5 -364.2,188.8 -9,0.5 -18.6,0.2 -27.9,0.2 18.4,94.4 37.2,189.1 56.1,283.5 23.8,118.8 48,237.6 73,356.1 26.9,-112 86.5,-274 210.7,-305.9 46.9,-12.1 140.3,-15.9 192.5,45.7 61.5,72.8 18.8,185.1 13.6,197.8 -44.9,110.1 -184.8,181.4 -364.1,188.8 -8,0.3 -16.6,0 -24.9,0.1 23.7,106.3 48.4,212.2 76,317.2 34.9,131.5 74.1,261.6 124.9,386.1 2,5 4.1,9.8 6.1,14.8 8.9,-119.5 43.9,-312.4 174.2,-366.5 46.5,-19.3 142.4,-37 205.3,18.9 74.4,66.1 46.5,188.3 43.1,202.1 -31.6,125.6 -176.3,222.7 -373.1,252.8 10,19.7 20.4,39.3 30.9,58.7 34.3,57.3 70,111.8 113.3,163.5 169.1,207.7 392.3,367.1 633.6,484.2 106.8,52.5 218.5,95.5 332.2,131.9 2.9,34 6.5,66.3 10.4,97 -130,-41.2 -257.7,-90.9 -380.1,-152.7" /></g><g
         transform="scale(3.22125)"
         id="g82"><path
           id="path84"
           style="fill:#a2d2ff;fill-opacity:1;fill-rule:nonzero;stroke:none"
           d="m 16300,3344.55 c 0,-31.58 -83.7,-57.16 -187,-57.16 -103.4,0 -187.1,25.58 -187.1,57.16 0,31.54 83.7,57.12 187.1,57.12 103.3,0 187,-25.58 187,-57.12" /></g><g
         transform="scale(3.1405)"
         id="g86"><path
           id="path88"
           style="fill:#a2d2ff;fill-opacity:1;fill-rule:nonzero;stroke:none"
           d="m 16300,3032.19 c 0,-26.49 -70.1,-47.99 -156.5,-47.99 -86.5,0 -156.5,21.5 -156.5,47.99 0,26.49 70,47.95 156.5,47.95 86.4,0 156.5,-21.46 156.5,-47.95" /></g><g
         transform="scale(3.32631)"
         id="g90"><path
           id="path92"
           style="fill:#a2d2ff;fill-opacity:1;fill-rule:nonzero;stroke:none"
           d="m 16300,3012.98 c 0,-26.34 -72.6,-47.68 -162.1,-47.68 -89.5,0 -162.1,21.34 -162.1,47.68 0,26.33 72.6,47.68 162.1,47.68 89.5,0 162.1,-21.35 162.1,-47.68" /></g><g
         transform="scale(3.1298)"
         id="g94"><path
           id="path96"
           style="fill:#a2d2ff;fill-opacity:1;fill-rule:nonzero;stroke:none"
           d="m 16300,3777.2 c 0,-20.99 -124.8,-38.02 -278.7,-38.02 -153.9,0 -278.6,17.03 -278.6,38.02 0,20.96 124.7,37.99 278.6,37.99 153.9,0 278.7,-17.03 278.7,-37.99" /></g><g
         transform="scale(3.31269)"
         id="g98"><path
           id="path100"
           style="fill:#a2d2ff;fill-opacity:1;fill-rule:nonzero;stroke:none"
           d="m 16300,3831.93 c 0,-30.4 -96.4,-55.06 -215.4,-55.06 -119,0 -215.4,24.66 -215.4,55.06 0,30.4 96.4,55.06 215.4,55.06 119,0 215.4,-24.66 215.4,-55.06" /></g><g
         transform="scale(3.31756)"
         id="g102"><path
           id="path104"
           style="fill:#a2d2ff;fill-opacity:1;fill-rule:nonzero;stroke:none"
           d="m 16300,3467.82 c 0,-14.5 -53.5,-26.28 -119.5,-26.28 -66,0 -119.5,11.78 -119.5,26.28 0,14.53 53.5,26.29 119.5,26.29 66,0 119.5,-11.76 119.5,-26.29" /></g><g
         transform="scale(3.05101)"
         id="g106"><path
           id="path108"
           style="fill:#a2d2ff;fill-opacity:1;fill-rule:nonzero;stroke:none"
           d="m 16300,3440.21 c 0,-16.91 -78,-30.61 -174.1,-30.61 -96.2,0 -174.1,13.7 -174.1,30.61 0,16.91 77.9,30.61 174.1,30.61 96.1,0 174.1,-13.7 174.1,-30.61" /></g><g
         transform="scale(3.01404)"
         id="g110"><path
           id="path112"
           style="fill:#a2d2ff;fill-opacity:1;fill-rule:nonzero;stroke:none"
           d="m 16300,3761.8 c 0,-14.53 -40,-26.31 -89.4,-26.31 -49.5,0 -89.5,11.78 -89.5,26.31 0,14.53 40,26.31 89.5,26.31 49.4,0 89.4,-11.78 89.4,-26.31" /></g><g
         transform="scale(3.12396)"
         id="g114"><path
           id="path116"
           style="fill:#a2d2ff;fill-opacity:1;fill-rule:nonzero;stroke:none"
           d="m 16300,3478.15 c 0,-16.27 -34.1,-29.45 -76.1,-29.45 -42.1,0 -76.2,13.18 -76.2,29.45 0,16.26 34.1,29.45 76.2,29.45 42,0 76.1,-13.19 76.1,-29.45" /></g><g
         transform="scale(3.19985)"
         id="g118"><path
           id="path120"
           style="fill:#a2d2ff;fill-opacity:1;fill-rule:nonzero;stroke:none"
           d="m 16300,3156.84 c 0,-13.69 -25.5,-24.78 -57,-24.78 -31.5,0 -57,11.09 -57,24.78 0,13.69 25.5,24.78 57,24.78 31.5,0 57,-11.09 57,-24.78" /></g><g
         transform="scale(3.21055)"
         id="g122"><path
           id="path124"
           style="fill:#a2d2ff;fill-opacity:1;fill-rule:nonzero;stroke:none"
           d="m 16300,3646.39 c 0,-19.78 -37.6,-35.82 -84,-35.82 -46.3,0 -83.9,16.04 -83.9,35.82 0,19.78 37.6,35.82 83.9,35.82 46.4,0 84,-16.04 84,-35.82" /></g><g
         transform="scale(3.35744)"
         id="g126"><path
           id="path128"
           style="fill:#a2d2ff;fill-opacity:1;fill-rule:nonzero;stroke:none"
           d="m 16300,3236.27 c 0,-15.13 -38.1,-27.4 -85,-27.4 -46.9,0 -85,12.27 -85,27.4 0,15.14 38.1,27.41 85,27.41 46.9,0 85,-12.27 85,-27.41" /></g><g
         transform="scale(3.37496)"
         id="g130"><path
           id="path132"
           style="fill:#a2d2ff;fill-opacity:1;fill-rule:nonzero;stroke:none"
           d="m 16300,3538.3 c 0,-19.59 -37.9,-35.47 -84.6,-35.47 -46.7,0 -84.6,15.88 -84.6,35.47 0,19.58 37.9,35.46 84.6,35.46 46.7,0 84.6,-15.88 84.6,-35.46" /></g><g
         transform="scale(2.9508)"
         id="g134"><path
           id="path136"
           style="fill:#a2d2ff;fill-opacity:1;fill-rule:nonzero;stroke:none"
           d="m 16300,3682.25 c 0,-17.21 -49.3,-31.18 -110.2,-31.18 -60.8,0 -110.1,13.97 -110.1,31.18 0,17.22 49.3,31.18 110.1,31.18 60.9,0 110.2,-13.96 110.2,-31.18" /></g><g
         transform="scale(3.04128)"
         id="g138"><path
           id="path140"
           style="fill:#a2d2ff;fill-opacity:1;fill-rule:nonzero;stroke:none"
           d="m 16300,3211.94 c 0,-17.29 -40.9,-31.3 -91.2,-31.3 -50.5,0 -91.3,14.01 -91.3,31.3 0,17.26 40.8,31.27 91.3,31.27 50.3,0 91.2,-14.01 91.2,-31.27" /></g><g
         transform="scale(1.41408)"
         id="g142"><path
           id="path144"
           style="fill:#a2d2ff;fill-opacity:1;fill-rule:nonzero;stroke:none"
           d="m 5849.11,16169.8 c 0,-71.9 -190.78,-130.2 -426.12,-130.2 -235.34,0 -426.12,58.3 -426.12,130.2 0,72 190.78,130.2 426.12,130.2 235.34,0 426.12,-58.2 426.12,-130.2" /></g><g
         transform="scale(1.33528)"
         id="g146"><path
           id="path148"
           style="fill:#a2d2ff;fill-opacity:1;fill-rule:nonzero;stroke:none"
           d="m 5208.63,16187.2 c 0,-62.3 -164.82,-112.8 -368.14,-112.8 -203.31,0 -368.14,50.5 -368.14,112.8 0,62.3 164.83,112.8 368.14,112.8 203.32,0 368.14,-50.5 368.14,-112.8" /></g><g
         transform="scale(1.36642)"
         id="g150"><path
           id="path152"
           style="fill:#a2d2ff;fill-opacity:1;fill-rule:nonzero;stroke:none"
           d="m 7306.46,16183.9 c 0,-64.1 -176.65,-116 -394.56,-116 -217.91,0 -394.57,51.9 -394.57,116 0,64.1 176.66,116.1 394.57,116.1 217.91,0 394.56,-52 394.56,-116.1" /></g><g
         transform="scale(1.4744)"
         id="g154"><path
           id="path156"
           style="fill:#a2d2ff;fill-opacity:1;fill-rule:nonzero;stroke:none"
           d="m 4598.87,16219.3 c 0,-44.5 -264.83,-80.6 -591.52,-80.6 -326.69,0 -591.52,36.1 -591.52,80.6 0,44.6 264.83,80.7 591.52,80.7 326.69,0 591.52,-36.1 591.52,-80.7" /></g><g
         transform="scale(1.5318)"
         id="g158"><path
           id="path160"
           style="fill:#a2d2ff;fill-opacity:1;fill-rule:nonzero;stroke:none"
           d="m 6372.7,16181 c 0,-65.8 -208.55,-119.1 -465.83,-119.1 -257.27,0 -465.84,53.3 -465.84,119.1 0,65.7 208.57,119 465.84,119 257.28,0 465.83,-53.3 465.83,-119" /></g><g
         transform="scale(1.453)"
         id="g162"><path
           id="path164"
           style="fill:#a2d2ff;fill-opacity:1;fill-rule:nonzero;stroke:none"
           d="m 6772.88,16240 c 0,-33.2 -122.16,-60 -272.84,-60 -150.68,0 -272.83,26.8 -272.83,60 0,33.1 122.15,60 272.83,60 150.68,0 272.84,-26.9 272.84,-60" /></g><g
         transform="scale(1.3915)"
         id="g166"><path
           id="path168"
           style="fill:#a2d2ff;fill-opacity:1;fill-rule:nonzero;stroke:none"
           d="m 3949.81,16232.9 c 0,-37.1 -170.92,-67.1 -381.76,-67.1 -210.83,0 -381.76,30 -381.76,67.1 0,37.1 170.93,67.1 381.76,67.1 210.84,0 381.76,-30 381.76,-67.1" /></g><g
         transform="scale(1.4423)"
         id="g170"><path
           id="path172"
           style="fill:#a2d2ff;fill-opacity:1;fill-rule:nonzero;stroke:none"
           d="m 3392.91,16245 c 0,-30.3 -83.68,-54.9 -186.9,-54.9 -103.23,0 -186.91,24.6 -186.91,54.9 0,30.4 83.68,55 186.91,55 103.22,0 186.9,-24.6 186.9,-55" /></g><g
         transform="scale(1.41408)"
         id="g174"><path
           id="path176"
           style="fill:#a2d2ff;fill-opacity:1;fill-rule:nonzero;stroke:none"
           d="m 4727.74,16234.9 c 0,-35.9 -75.31,-65.1 -168.2,-65.1 -92.9,0 -168.21,29.2 -168.21,65.1 0,36 75.31,65.1 168.21,65.1 92.89,0 168.2,-29.1 168.2,-65.1" /></g><g
         transform="scale(1.36642)"
         id="g178"><path
           id="path180"
           style="fill:#a2d2ff;fill-opacity:1;fill-rule:nonzero;stroke:none"
           d="m 5797.84,16242 c 0,-32.1 -59.75,-58.1 -133.45,-58.1 -73.71,0 -133.46,26 -133.46,58.1 0,32 59.75,58 133.46,58 73.7,0 133.45,-26 133.45,-58" /></g><g
         transform="scale(1.4671)"
         id="g182"><path
           id="path184"
           style="fill:#a2d2ff;fill-opacity:1;fill-rule:nonzero;stroke:none"
           d="m 5518.83,16221.6 c 0,-43.2 -82.27,-78.3 -183.74,-78.3 -101.48,0 -183.74,35.1 -183.74,78.3 0,43.3 82.26,78.4 183.74,78.4 101.47,0 183.74,-35.1 183.74,-78.4" /></g><g
         transform="scale(1.41408)"
         id="g186"><path
           id="path188"
           style="fill:#a2d2ff;fill-opacity:1;fill-rule:nonzero;stroke:none"
           d="m 7419.01,16234.9 c 0,-35.9 -90.38,-65.1 -201.83,-65.1 -111.52,0 -201.86,29.2 -201.86,65.1 0,36 90.34,65.1 201.86,65.1 111.45,0 201.83,-29.1 201.83,-65.1" /></g><g
         transform="scale(1.48179)"
         id="g190"><path
           id="path192"
           style="fill:#a2d2ff;fill-opacity:1;fill-rule:nonzero;stroke:none"
           d="m 7272.6,16219.2 c 0,-44.6 -86.25,-80.8 -192.6,-80.8 -106.36,0 -192.61,36.2 -192.61,80.8 0,44.6 86.25,80.8 192.61,80.8 106.35,0 192.6,-36.2 192.6,-80.8" /></g><g
         transform="scale(1.41408)"
         id="g194"><path
           id="path196"
           style="fill:#a2d2ff;fill-opacity:1;fill-rule:nonzero;stroke:none"
           d="m 2731.71,16234.9 c 0,-35.9 -102.92,-65.1 -229.88,-65.1 -126.96,0 -229.88,29.2 -229.88,65.1 0,36 102.92,65.1 229.88,65.1 126.96,0 229.88,-29.1 229.88,-65.1" /></g><g
         transform="scale(1.34696)"
         id="g198"><path
           id="path200"
           style="fill:#a2d2ff;fill-opacity:1;fill-rule:nonzero;stroke:none"
           d="m 3962.7,16229.4 c 0,-39.1 -92.25,-70.7 -206.02,-70.7 -113.79,0 -206.02,31.6 -206.02,70.7 0,39 92.23,70.6 206.02,70.6 113.77,0 206.02,-31.6 206.02,-70.6" /></g></g></g></svg>